<mxfile host="app.diagrams.net" modified="2023-09-26T08:58:58.043Z" agent="Mozilla/5.0 (X11; Linux x86_64) AppleWebKit/537.36 (KHTML, like Gecko) Chrome/116.0.0.0 Safari/537.36" version="21.8.2" etag="_V4iG1GyZiRhldVjTPzy" type="github">
  <diagram name="Page-1" id="ltdukebuuAOgOU629GBv">
    <mxGraphModel>
      <root>
        <mxCell id="0" />
        <mxCell id="1" parent="0" />
      </root>
    </mxGraphModel>
  </diagram>
</mxfile>
